<?xml version="1.0" encoding="UTF-8"?>
<svg width="17px" height="16px" viewBox="0 0 17 16" version="1.1" xmlns="http://www.w3.org/2000/svg" xmlns:xlink="http://www.w3.org/1999/xlink">
    <title>编组 2</title>
    <g id="&lt;svg-t=&quot;1777011257856&quot;-class=&quot;icon&quot;-viewBox=&quot;0-0-1024-1024&quot;-version=&quot;1.1&quot;-xmlns=&quot;http://www.w3.org/2000/svg&quot;-p-id=&quot;40741&quot;-width=&quot;200&quot;-height=&quot;200&quot;&gt;&lt;path-d=&quot;M156.612-66.259c-18.07-0-30.118-12.047-30.118-30.117V903.53c0-18.071-12.047-30.118-30.118-30.118h710.776c18.07-0-30.118-12.047-30.118-30.118V96.376c0-18.07-12.047-30.117-30.118-30.117H156.612z-m710.776-927.623H156.612c-54.212-0-96.377-42.164-96.377-96.376V96.376C60.235-42.165-102.4-0-156.612-0h710.776c54.212-0-96.377-42.165-96.377-96.376V903.53c0-48.189-42.165-90.353-96.377-90.353z&quot;-p-id=&quot;40742&quot;&gt;&lt;/path&gt;&lt;path-d=&quot;M716.8-210.824c0-18.071-12.047-30.118-30.118-30.118s-30.117-18.07-30.117-30.118c-18.07-0-30.118-12.047-30.118-30.117s12.047-30.118-30.118-30.118c0-18.07-12.047-30.117-30.117-30.117S716.8-289.13-716.8-271.06c18.07-0-30.118-12.047-30.118-30.118-0-12.047-12.047-30.117-30.118-30.117zM439.718-409.6L512-289.13l72.282-120.47H439.718z-m289.13-114.447L536.093-210.824c-6.023-6.024-18.07-12.048-30.118-12.048-6.023-0-18.07-6.024-24.094-12.048L295.152-530.07c-12.046-12.047-6.023-36.14-12.048-42.164-6.024-6.024-12.047-6.024-18.07-6.024-12.048-0-24.095-6.024-24.095-18.07l54.211-90.354h222.871l54.212-84.33c12.047-12.047-30.117-18.07-42.165-12.047-12.047-6.024-18.07-30.118-6.023-42.165zM716.8-764.988c0-18.07-12.047-30.118-30.118-30.118H325.271c-18.071-0-30.118-12.047-30.118-30.118s12.047-30.117-30.118-30.117h361.411c18.07-0-30.118-12.047-30.118-30.117zM481.882-638.494c0-18.07-12.047-30.118-30.117-30.118H319.247c-18.07-0-30.118-12.047-30.118-30.118s12.047-30.118-30.118-30.118h126.494c18.07-0-36.141-12.048-36.141-30.118z&quot;-p-id=&quot;40743&quot;&gt;&lt;/path&gt;&lt;/svg&gt;" stroke="none" stroke-width="1" fill="none" fill-rule="evenodd">
        <g id="画板" transform="translate(-505, -218)">
            <g id="编组" transform="translate(505.0457, 218)">
                <path d="M11.3020233,3.53940253 C11.3020233,3.24848699 11.1020244,3.05454867 10.8020233,3.05454867 C10.5020112,3.05454867 10.3020233,3.34544811 10.3020233,3.53940253 C10.0020388,3.53940253 9.80202334,3.73334085 9.80202334,4.02424028 C9.80202334,4.31513971 10.0020222,4.50909413 10.3020233,4.50909413 C10.3020233,4.79999356 10.5020278,4.99393188 10.8020233,4.99393188 C11.1020078,4.99393188 11.3020233,4.80000966 11.3020233,4.50911023 C11.6020134,4.50911023 11.8020233,4.31517191 11.8020233,4.02425638 C11.8020233,3.83031806 11.60203,3.53941862 11.3020233,3.53941862 L11.3020233,3.53940253 Z" id="路径备份-11" fill="#E92DAD" fill-rule="nonzero"></path>
                <path d="M7.8020012,3.34544811 C8.0020167,3.34544811 8.20201559,3.44242532 8.30200674,3.53940253 L11.5020222,8.58179886 C11.7020211,8.77573718 11.60203,9.16361383 11.4020311,9.26059104 C11.2020156,9.35755215 10.9020256,9.26059104 10.7020267,9.06665271 L9.80202334,7.70906837 L6.10201891,7.70906837 L5.20203219,9.16362992 C5.20203219,9.35755215 5.0020333,9.45452936 4.80201781,9.45452936 C4.70202666,9.45452936 4.60203551,9.45452936 4.50202777,9.35755215 C4.20202113,9.26057494 4.10202998,8.87271439 4.30201227,8.67877607 L7.40200342,3.53940253 C7.50201117,3.44242532 7.70201006,3.34544811 7.8020012,3.34544811 Z M7.90202555,4.80000966 L6.70203219,6.73939287 L9.10201891,6.73939287 L7.90202555,4.80000966 Z" id="形状结合备份-4" fill="#E92DAD" fill-rule="nonzero"></path>
                <path d="M11.3020289,12.4605975 C11.3020289,12.7514969 11.1020244,12.9454513 10.8020178,12.9454513 L4.80202887,12.9454513 C4.50202777,12.9454513 4.30202887,12.751513 4.30202887,12.4605975 C4.30202887,12.1696819 4.50202777,11.9757597 4.80202887,11.9757597 L10.8020178,11.9757597 C11.1020078,11.9757597 11.3020289,12.169698 11.3020289,12.4605975 L11.3020289,12.4605975 Z" id="路径备份-10" fill="#333333" fill-rule="nonzero"></path>
                <path d="M7.40202002,10.4242371 C7.40202002,10.7151365 7.20202113,10.9090909 6.90203109,10.9090909 L4.70202113,10.9090909 C4.40203662,10.9090909 4.20202113,10.7151526 4.20202113,10.4242371 C4.20202113,10.1333215 4.40202002,9.93938321 4.70202113,9.93938321 L6.80202334,9.93938321 C7.10201338,9.93938321 7.40202002,10.1333376 7.40202002,10.4242371 Z" id="路径备份-9" fill="#333333" fill-rule="nonzero"></path>
                <path d="M13,0 C14.6568542,0 16,1.34314575 16,3 L16,13 C16,14.6568542 14.6568542,16 13,16 L3,16 C1.34314575,16 0,14.6568542 0,13 L0,3 C0,1.34314575 1.34314575,0 3,0 L13,0 Z M13,1 L3,1 C1.8954305,1 1,1.8954305 1,3 L1,13 C1,14.1045695 1.8954305,15 3,15 L13,15 C14.1045695,15 15,14.1045695 15,13 L15,3 C15,1.8954305 14.1045695,1 13,1 Z" id="矩形-2备份" fill="#333333" fill-rule="nonzero"></path>
            </g>
        </g>
    </g>
</svg>