<?xml version="1.0" encoding="UTF-8"?>
<svg width="22px" height="22px" viewBox="0 0 22 22" version="1.1" xmlns="http://www.w3.org/2000/svg" xmlns:xlink="http://www.w3.org/1999/xlink">
    <title>形状</title>
    <g id="图标" stroke="none" stroke-width="1" fill="none" fill-rule="evenodd">
        <path d="M17.8426935,14.168 L19.9440299,16.2793529 L14.405355,21.2435882 C14.3480215,21.3011765 14.2560214,21.3322353 14.1633546,21.3665294 L11.8880178,21.9657059 C11.8520178,22 11.795351,22 11.771351,22 C11.6481023,21.9998909 11.5291204,21.9561825 11.4366838,21.8770588 C11.3200348,21.7622234 11.2923585,21.587749 11.3680171,21.4441765 L12.1420182,19.3244118 C12.1598628,19.2366847 12.2086639,19.1577418 12.2800184,19.1011765 L17.8426935,14.168 L17.8426935,14.168 Z M17.1493591,0 C17.8426935,0 18.3960276,0.532529422 18.3960276,1.17764707 L18.3960276,11.7421765 L10.1333485,19.2273529 C9.85534812,18.8371765 9.40401411,18.1927059 9.18601378,18.1927059 C8.93201339,18.1927059 8.38801257,18.9348824 8.10067882,19.3360588 C7.51201128,20.1351765 6.97067712,20.8799412 6.18467594,20.8799412 C5.40134144,20.8572941 4.86934062,20.0691765 4.37333989,19.3127647 C4.14333955,18.9665882 3.69200554,18.2787647 3.44933852,18.2017647 C3.12667137,18.37 2.43333699,19.2700588 0.980668121,20.768 C0.872725945,20.8797855 0.72250454,20.9440416 0.564667513,20.9459412 C0.25400037,20.9459412 0,20.7026471 0,20.4127647 L0,1.20029411 C0,0.532529422 0.564667513,0 1.24666854,0 L17.1493591,0 Z M21.6273658,12.8162941 C22.2040333,13.3921765 22.0993665,14.3918824 21.3966988,15.0357059 L20.8560313,15.5145294 L18.7213614,13.3831176 L19.2626956,12.9049412 C19.9533633,12.2837647 21.0500316,12.2488235 21.6273658,12.8162941 Z M14.4020216,11.9822353 L3.99333933,11.9822353 C3.56667203,11.9822353 3.20733815,12.3148235 3.20733815,12.716 C3.20733815,13.1281765 3.55400533,13.4491176 3.99400599,13.4491176 L14.4140216,13.4491176 C14.8413556,13.4491176 15.1880228,13.1255882 15.1880228,12.716 C15.1880228,12.3031765 14.8413556,11.9822353 14.4020216,11.9822353 Z M8.94268008,2.41223529 C8.29601244,2.41223529 7.81401173,2.59729411 7.49667792,2.96676471 C7.17934411,3.33623531 7.02067721,3.84676471 7.02067721,4.49770589 L7.02067721,7.65729411 C7.02067721,8.28494118 7.1840108,8.78641176 7.51067793,9.16170589 C7.83734509,9.537 8.31401248,9.72464707 8.94268008,9.72464707 C9.55934769,9.72464707 10.0306817,9.537 10.3573489,9.16170589 C10.684016,8.78641178 10.8466829,8.28494118 10.8466829,7.65729411 L10.8466829,4.49705882 C10.8466829,3.85194118 10.688016,3.34335293 10.3706822,2.97 C10.0533484,2.59794118 9.5773477,2.41158824 8.94268008,2.41158824 L8.94268008,2.41223529 Z M13.6026871,2.41223529 C12.9560194,2.41223529 12.4746854,2.59729411 12.1573516,2.96676471 C11.8400178,3.33623529 11.6813509,3.84676471 11.6813509,4.49770589 L11.6813509,7.65729411 C11.6813509,8.28494118 11.8440178,8.78641176 12.1706849,9.16170589 C12.4973521,9.537 12.9746861,9.72464707 13.6033538,9.72464707 C14.2200214,9.72464707 14.6913554,9.537 15.0173559,9.16170589 C15.344023,8.78641178 15.5073566,8.28494118 15.5073566,7.65729411 L15.5073566,4.49705882 C15.5073566,3.85194118 15.3486897,3.34335293 15.0313559,2.97 C14.7140221,2.59794118 14.2380214,2.41158824 13.6033538,2.41158824 L13.6026871,2.41223529 Z M5.28000791,2.49182353 L4.31000647,2.49182353 C4.17667294,2.64388236 3.96667262,2.79205882 3.68000551,2.93570589 C3.39267174,3.08 3.12800468,3.19258824 2.88667099,3.27476471 L2.88667099,4.18064707 C2.892671,4.1754706 3.0493379,4.12888236 3.35800504,4.04023529 C3.73800561,3.94641176 3.95933928,3.87847058 4.02000602,3.83770589 L4.02000602,9.61982353 L5.28000791,9.61982353 L5.28000791,2.49117647 L5.28000791,2.49182353 Z M8.94268008,3.45982353 C9.19668048,3.45982353 9.36601405,3.55817647 9.45068084,3.75423529 C9.53534763,3.95094118 9.5773477,4.20458822 9.5773477,4.51582353 L9.5773477,7.63982353 C9.5773477,8.33217647 9.36601405,8.67770589 8.94268008,8.67770589 C8.51401277,8.67770589 8.29934579,8.33217647 8.29934579,7.63982353 L8.29934579,4.51582353 C8.29934579,4.19876471 8.34134586,3.94382353 8.42601265,3.74970589 C8.51067944,3.55623531 8.6826797,3.45982353 8.94268008,3.45982353 Z M13.6026871,3.45982353 C13.8573541,3.45982353 14.0260211,3.55817647 14.1106878,3.75423529 C14.1953546,3.95094118 14.2373547,4.20458822 14.2373547,4.51582353 L14.2373547,7.63982353 C14.2373547,8.33217647 14.0260211,8.67770589 13.6033538,8.67770589 C13.1740198,8.67770589 12.9593528,8.33217647 12.9593528,7.63982353 L12.9593528,4.51582353 C12.9593528,4.19876471 13.0020195,3.94382353 13.0860197,3.74970589 C13.1706864,3.55623531 13.3433534,3.45982353 13.6033538,3.45982353 L13.6026871,3.45982353 Z" id="形状" fill="#24CC33" fill-rule="nonzero"></path>
    </g>
</svg>