<?xml version="1.0" encoding="UTF-8"?>
<svg width="24px" height="24px" viewBox="0 0 24 24" version="1.1" xmlns="http://www.w3.org/2000/svg" xmlns:xlink="http://www.w3.org/1999/xlink">
    <title>形状结合</title>
    <g id="图标" stroke="none" stroke-width="1" fill="none" fill-rule="evenodd">
        <path d="M18.864103,14.4807175 L19.1970865,14.8152882 L21.298423,16.9266412 L21.6700669,17.3000566 L21.2777475,17.6516869 L15.7596914,22.5963568 C15.6465222,22.710029 15.5525762,22.7559807 15.3663728,22.8245889 C15.3509193,22.8302734 15.3509193,22.8302734 15.2906815,22.8500456 L13.0797379,23.432 L13.0693285,23.4388153 L12.9802615,23.4720321 C12.9004695,23.495359 12.8309318,23.501093 12.7709084,23.4999998 C12.5289893,23.4997857 12.2947713,23.4137449 12.0859112,23.2333712 C11.8125192,22.9642298 11.7468721,22.5503838 11.8983469,22.2726832 L12.6520518,20.2247477 C12.6934959,20.0210009 12.8061346,19.8387916 12.9482659,19.7270906 L18.5109409,14.7939141 L18.864103,14.4807175 Z M18.8207379,15.855 L13.6046394,20.4804496 C13.6168628,20.4687716 13.6225943,20.4632526 13.6116884,20.495905 L12.8947379,22.447 L14.9898172,21.8976107 C14.9979083,21.8946258 15.0019538,21.8931333 15.0058063,21.8917141 L15.0206366,21.8862571 C15.0667072,21.869282 15.077922,21.8637966 15.0716374,21.8712543 L20.2177379,17.259 L18.8207379,15.855 Z M18.1493591,0.5 C19.1096905,0.5 19.8960276,1.24709622 19.8960276,2.17764707 L19.8960276,12.9638844 L19.7317165,13.1127341 L11.4690374,20.5979106 L11.0523745,20.9753663 L10.726138,20.5174901 C10.5861622,20.3210326 10.5480446,20.2677301 10.4931077,20.1934152 L10.3912253,20.0576002 L10.3231453,19.9701383 C10.2748915,19.9092969 10.2302086,19.8556443 10.1897044,19.8098769 L10.171,19.789 L10.1630399,19.7985301 C10.1397041,19.8247744 10.111118,19.8550821 10.0807117,19.888505 L10.0341661,19.9408573 C9.87756917,20.1220772 9.71755683,20.3334601 9.50324427,20.6326074 C9.34533029,20.846976 9.29423424,20.9158539 9.21476539,21.0202661 C8.50837927,21.9483694 7.96576122,22.3799412 7.17022642,22.3797323 C6.28164204,22.3540424 5.78978377,21.8596743 4.95687996,20.5894615 C4.79810901,20.3504933 4.74445836,20.270971 4.65283353,20.1421791 C4.60081104,20.0690539 4.55161777,20.002332 4.50510107,19.9420727 C4.48724237,19.9189379 4.46965655,19.8968389 4.45271659,19.8759792 L4.40845115,19.9103438 C3.90578102,20.4318482 2.85550674,21.5766353 2.41206984,22.0407456 L2.34035059,22.1153162 C2.13922562,22.3236023 1.86148165,22.4424052 1.56466751,22.4459412 C0.984859757,22.4459412 0.5,21.986073 0.5,21.4127647 L0.5,2.20029411 C0.5,1.25514045 1.28935512,0.5 2.24666854,0.5 L18.1493591,0.5 Z M18.1493591,1.5 L2.24666854,1.5 C1.8319702,1.5 1.5,1.81758092 1.5,2.20029411 L1.5,21.4127647 C1.5,21.4216071 1.52565655,21.4459774 1.55865037,21.4459774 C1.58352743,21.445678 1.60622627,21.4359687 1.62173228,21.4199123 C1.87674016,21.1569571 3.92555428,18.9109794 4.21817734,18.7584087 L4.40246391,18.6623236 L4.6005618,18.7251815 C4.84368049,18.8023249 5.03788716,18.9957569 5.29668654,19.3310142 C5.35173857,19.4023305 5.40852247,19.4793478 5.46767101,19.5624896 C5.56779033,19.7032218 5.62472863,19.7876171 5.79146384,20.0385889 C6.43628554,21.0219559 6.7806233,21.3680507 7.18467594,21.3799412 C7.55016401,21.3799412 7.89009416,21.1095774 8.41902782,20.4146245 C8.49409908,20.3159902 8.54359502,20.2492693 8.69418581,20.0449172 C8.92122829,19.7279197 9.0956615,19.4974862 9.27752653,19.2870251 C9.6197041,18.8910442 9.85821094,18.6927059 10.1860137,18.6927059 C10.5284094,18.6927059 10.7484917,18.8971649 11.1066407,19.3487406 L11.1846631,19.4489467 L11.21,19.482 L18.8960276,12.52 L18.8960276,2.17764707 C18.8960276,1.8416952 18.6208389,1.55224332 18.2521055,1.50633434 L18.1493591,1.5 Z M22.97786,13.4597077 C23.7730216,14.2537645 23.6349408,15.5793047 22.7281957,16.4100183 L22.1875282,16.8888419 L21.8355036,17.2006004 L21.502748,16.8683527 L19.3680782,14.7369409 L18.9913694,14.3608072 L19.3903449,14.0083803 L19.9283395,13.5331805 C20.8042488,12.7454004 22.2004195,12.6955497 22.97786,13.4597077 Z M20.5937121,14.2796785 L20.4513614,14.4056706 L21.8753614,15.8286706 L22.0589188,15.6670534 C22.5282719,15.2370058 22.6223188,14.6252952 22.3447122,14.2518478 L22.2768716,14.1728805 C21.8955051,13.7980294 21.0975966,13.826519 20.5937121,14.2796785 Z M15.4020216,12.9822353 C15.8413556,12.9822353 16.1880228,13.3031765 16.1880228,13.716 C16.1880228,14.1255882 15.8413556,14.4491176 15.4140216,14.4491176 L4.99400599,14.4491176 C4.55400533,14.4491176 4.20733815,14.1281765 4.20733815,13.716 C4.20733815,13.3148235 4.56667203,12.9822353 4.99333933,12.9822353 Z M9.94268008,3.41158824 C10.5773477,3.41158824 11.0533484,3.59794118 11.3706822,3.97 C11.688016,4.34335293 11.8466829,4.85194118 11.8466829,5.49705882 L11.8466829,8.65729411 C11.8466829,9.28494118 11.684016,9.78641178 11.3573489,10.1617059 C11.0306817,10.537 10.5593477,10.7246471 9.94268008,10.7246471 C9.31401248,10.7246471 8.83734509,10.537 8.51067793,10.1617059 C8.1840108,9.78641176 8.02067721,9.28494118 8.02067721,8.65729411 L8.02067721,5.49770589 C8.02067721,4.84676471 8.17934411,4.33623531 8.49667792,3.96676471 C8.81401173,3.59729411 9.29601244,3.41223529 9.94268008,3.41223529 Z M14.6033538,3.41158824 C15.2380214,3.41158824 15.7140221,3.59794118 16.0313559,3.97 C16.3486897,4.34335293 16.5073566,4.85194118 16.5073566,5.49705882 L16.5073566,8.65729411 C16.5073566,9.28494118 16.344023,9.78641178 16.0173559,10.1617059 C15.6913554,10.537 15.2200214,10.7246471 14.6033538,10.7246471 C13.9746861,10.7246471 13.4973521,10.537 13.1706849,10.1617059 C12.8440178,9.78641176 12.6813509,9.28494118 12.6813509,8.65729411 L12.6813509,5.49770589 C12.6813509,4.84676471 12.8400178,4.33623529 13.1573516,3.96676471 C13.4746854,3.59729411 13.9560194,3.41223529 14.6026871,3.41223529 Z M6.28000791,3.49117647 L6.28000791,10.6198235 L5.02000602,10.6198235 L5.02000602,4.83770589 C4.95933928,4.87847058 4.73800561,4.94641176 4.35800504,5.04023529 C4.0493379,5.12888236 3.892671,5.1754706 3.88667099,5.18064707 L3.88667099,4.27476471 C4.12800468,4.19258824 4.39267174,4.08 4.68000551,3.93570589 C4.96667262,3.79205882 5.17667294,3.64388236 5.31000647,3.49182353 L6.28000791,3.49117647 Z M9.94268008,4.45982353 C9.6826797,4.45982353 9.51067944,4.55623531 9.42601265,4.74970589 C9.34134586,4.94382353 9.29934579,5.19876471 9.29934579,5.51582353 L9.29934579,8.63982353 C9.29934579,9.33217647 9.51401277,9.67770589 9.94268008,9.67770589 C10.3660141,9.67770589 10.5773477,9.33217647 10.5773477,8.63982353 L10.5773477,5.51582353 C10.5773477,5.20458822 10.5353476,4.95094118 10.4506808,4.75423529 C10.3660141,4.55817647 10.1966805,4.45982353 9.94268008,4.45982353 Z M14.602,4.459 C14.3433534,4.45982353 14.1706864,4.55623531 14.0860197,4.74970589 C14.0020195,4.94382353 13.9593528,5.19876471 13.9593528,5.51582353 L13.9593528,8.63982353 C13.9593528,9.33217647 14.1740198,9.67770589 14.6033538,9.67770589 C15.0260211,9.67770589 15.2373547,9.33217647 15.2373547,8.63982353 L15.2373547,5.51582353 C15.2373547,5.20458822 15.1953546,4.95094118 15.1106878,4.75423529 C15.0381163,4.58618487 14.9038304,4.48991837 14.7065706,4.46584325 L14.602,4.459 Z" id="形状结合" fill="#404040" fill-rule="nonzero"></path>
    </g>
</svg>